<svg width="13" height="13" viewBox="0 0 13 13" fill="none" xmlns="http://www.w3.org/2000/svg">
<g opacity="0.5">
<circle cx="6.5" cy="6.5" r="6.5" fill="#D9D9D9"/>
<path d="M6.54327 5.40625C6.21775 5.40625 5.94952 5.32943 5.73858 5.17578C5.52764 5.02214 5.42217 4.80078 5.42217 4.51172C5.42217 4.22266 5.52764 4.00391 5.73858 3.85547C5.94952 3.70703 6.22035 3.63281 6.55108 3.63281C6.88181 3.63281 7.15004 3.70573 7.35577 3.85156C7.5641 3.9974 7.66827 4.21745 7.66827 4.51172C7.66827 4.80078 7.5615 5.02214 7.34795 5.17578C7.13702 5.32943 6.86879 5.40625 6.54327 5.40625ZM7.98077 8.82422V10H5.10186V8.82422H5.60577V7.02344H5.10186V6.0625L7.47686 5.81641V8.82422H7.98077Z" fill="#464646"/>
</g>
</svg>
